<?xml version="1.0" encoding="UTF-8"?>
<svg id="_レイヤー_1" data-name="レイヤー_1" xmlns="http://www.w3.org/2000/svg" version="1.1" viewBox="0 0 250 250">
  <!-- Generator: Adobe Illustrator 30.2.1, SVG Export Plug-In . SVG Version: 2.1.1 Build 1)  -->
  <defs>
    <style>
      .st0 {
        fill: #19499d;
      }

      .st1 {
        fill: #fff;
      }

      .st2 {
        fill: #e7201a;
      }
    </style>
  </defs>
  <path class="st0" d="M95.6,9.6L28.5,33.3c-.7.2-1.1.9-1.1,1.6v1.5s0,46.6,0,79,0,25.6,0,29.3c0,.3,0,.5,0,.7,0,.2.2.4.5.8.6.8,1.6,1.9,2.8,3,2.5,2.2,5.9,4.6,9.2,6,2.2.9,4.2,1.4,5.7,1.4.8,0,1.3-.1,1.8-.3h.1c0,0,66-23.1,66-23.1,3-1.1,5-3.9,5-7.1V27.5c0-.5-.3-1.1-.7-1.4-.3-.2-.6-.3-1-.3s-.4,0-.6,0h-.2c0,0-66.4,23.3-66.4,23.3h-.8c-3.4-.2-6.7-.8-9.6-1.7-2.9-.9-5.5-2.2-7.5-4.1-1.3-1.3-2.5-3-2.9-5.1-.4-2.2,1.1-4.3,3.4-4.7,2.2-.4,4.3,1.1,4.7,3.4h0s0,0,0,0c0,0,.2.3.4.5.4.4,1.3,1,2.4,1.5,2.1,1,5.3,1.7,8.8,1.9l65.3-22.8h-.2c1.1-.3-1.2-10.3-17.7-8.5ZM104.3,16l-59.5,20.8c-1.1.4-2.2-.2-2.6-1.3-.4-1.1.2-2.2,1.3-2.6l59.5-20.8c1.1-.4,2.2.2,2.6,1.2.4,1.1-.2,2.2-1.3,2.6Z"/>
  <path class="st1" d="M122.3,19.2c-1.7-1.2-3.7-1.8-5.7-1.8s-2.2.2-3.3.6h.2c0,0-65.3,22.8-65.3,22.8-3.4-.2-6.6-1-8.8-1.9-1.2-.5-2-1.1-2.4-1.5-.2-.2-.3-.4-.4-.5h0c0,0,0,0,0,0-.4-2.2-2.5-3.7-4.7-3.4-2.2.4-3.7,2.5-3.4,4.7.4,2.1,1.5,3.8,2.9,5.1,2.1,1.9,4.6,3.2,7.5,4.1,2.9.9,6.2,1.5,9.6,1.7h.8s66.4-23.2,66.4-23.2h.2c.2-.1.4-.2.6-.2.4,0,.7.1,1,.3.4.3.7.8.7,1.4v98.5c0,3.2-2,6-5,7.1l-66,23.1h-.1c-.4.2-1,.4-1.8.4-1.4,0-3.5-.5-5.7-1.4-3.2-1.4-6.7-3.7-9.2-6-1.2-1.1-2.2-2.2-2.8-3-.2-.3-.4-.6-.5-.8,0-.2,0-.4,0-.7,0-3.7,0-15.1,0-29.3,0-32.4,0-79,0-79v-1.5c0-.7.5-1.4,1.1-1.6L95.6,9.4c2.1-.8,3.3-3.1,2.5-5.2-.7-2.1-3.1-3.2-5.2-2.5L25.8,25.4h0c-4,1.4-6.6,5.1-6.6,9.3v1.5h0s0,2.9,0,7.8c0,14.6,0,46.9,0,71.2s0,15.3,0,20.7c0,2.7,0,4.9,0,6.5,0,.8,0,1.5,0,2,0,.5,0,.9,0,.9h0s0,.3,0,.3c0,1.6.5,2.7,1.1,3.8,1,1.8,2.4,3.4,4.1,5,2.6,2.4,5.9,4.9,9.5,6.8,3.6,1.9,7.5,3.3,11.5,3.4,1.6,0,3.2-.3,4.7-.9h0s65.8-23,65.8-23c6.3-2.2,10.5-8.1,10.5-14.8V27.3c0-3.2-1.6-6.2-4.2-8.1Z"/>
  <path class="st1" d="M102.9,11.9l-59.5,20.8c-1.1.4-1.6,1.5-1.3,2.6.4,1.1,1.5,1.6,2.6,1.3l59.5-20.8c1.1-.4,1.6-1.5,1.3-2.6-.4-1.1-1.5-1.6-2.6-1.2Z"/>
  <path class="st2" d="M130.5,38.2l-67.2,23.7c-.7.2-1.1.9-1.1,1.6v1.5s0,46.6,0,79,0,25.6,0,29.3c0,.3,0,.5,0,.7,0,.2.2.4.5.8.6.8,1.6,1.9,2.8,3,2.5,2.2,5.9,4.6,9.2,6,2.2.9,4.2,1.4,5.7,1.4.8,0,1.3-.1,1.8-.3h.1c0,0,66-23.1,66-23.1,3-1.1,5-3.9,5-7.1V56.1c0-.5-.3-1.1-.7-1.4-.3-.2-.6-.3-1-.3s-.4,0-.6,0h-.2c0,0-66.4,23.3-66.4,23.3h-.8c-3.4-.2-6.7-.8-9.6-1.7-2.9-.9-5.5-2.2-7.5-4.1-1.3-1.3-2.5-3-2.9-5.1-.4-2.2,1.1-4.3,3.4-4.7,2.2-.4,4.3,1.1,4.7,3.4h0s0,0,0,0c0,0,.2.3.4.5.4.4,1.3,1,2.4,1.5,2.1,1,5.3,1.7,8.8,1.9l65.3-22.8h-.2c1.1-.3-1.2-10.3-17.7-8.5ZM139.2,44.6l-59.5,20.8c-1.1.4-2.2-.2-2.6-1.3-.4-1.1.2-2.2,1.3-2.6l59.5-20.8c1.1-.4,2.2.2,2.6,1.2.4,1.1-.2,2.2-1.3,2.6Z"/>
  <path class="st1" d="M157.2,47.9c-1.7-1.2-3.7-1.8-5.7-1.8s-2.2.2-3.3.6h.2c0,0-65.3,22.8-65.3,22.8-3.4-.2-6.6-1-8.8-1.9-1.2-.5-2-1.1-2.4-1.5-.2-.2-.3-.4-.4-.5h0c0,0,0,0,0,0-.4-2.2-2.5-3.7-4.7-3.4-2.2.4-3.7,2.5-3.4,4.7.4,2.1,1.5,3.8,2.9,5.1,2.1,1.9,4.6,3.2,7.5,4.1,2.9.9,6.2,1.5,9.6,1.7h.8s66.4-23.2,66.4-23.2h.2c.2-.1.4-.2.6-.2.4,0,.7.1,1,.3.4.3.7.8.7,1.4v98.5c0,3.2-2,6-5,7.1l-66,23.1h-.1c-.4.2-1,.4-1.8.4-1.4,0-3.5-.5-5.7-1.4-3.2-1.4-6.7-3.7-9.2-6-1.2-1.1-2.2-2.2-2.8-3-.2-.3-.4-.6-.5-.8,0-.2,0-.4,0-.7,0-3.7,0-15.1,0-29.3,0-32.4,0-79,0-79v-1.5c0-.7.5-1.4,1.1-1.6l67.2-23.7c2.1-.8,3.3-3.1,2.5-5.2-.7-2.1-3.1-3.2-5.2-2.5l-67.1,23.7h0c-4,1.4-6.6,5.1-6.6,9.3v1.5h0s0,2.9,0,7.8c0,14.6,0,46.9,0,71.2s0,15.3,0,20.7c0,2.7,0,4.9,0,6.5,0,.8,0,1.5,0,2,0,.5,0,.9,0,.9h0s0,.3,0,.3c0,1.6.5,2.7,1.1,3.8,1,1.8,2.4,3.4,4.1,5,2.6,2.4,5.9,4.9,9.5,6.8,3.6,1.9,7.5,3.3,11.5,3.4,1.6,0,3.2-.3,4.7-.9h0s65.8-23,65.8-23c6.3-2.2,10.5-8.1,10.5-14.8V55.9c0-3.2-1.6-6.2-4.2-8.1Z"/>
  <path class="st1" d="M137.8,40.5l-59.5,20.8c-1.1.4-1.6,1.5-1.3,2.6.4,1.1,1.5,1.6,2.6,1.3l59.5-20.8c1.1-.4,1.6-1.5,1.3-2.6-.4-1.1-1.5-1.6-2.6-1.2Z"/>
  <path class="st0" d="M165.1,65l-67.2,23.7c-.7.2-1.1.9-1.1,1.6v1.5s0,46.6,0,79,0,25.6,0,29.3c0,.3,0,.5,0,.7,0,.2.2.4.5.8.6.8,1.6,1.9,2.8,3,2.5,2.2,5.9,4.6,9.2,6,2.2.9,4.2,1.4,5.7,1.4.8,0,1.3-.1,1.8-.3h.1c0,0,66-23.1,66-23.1,3-1.1,5-3.9,5-7.1v-98.5c0-.5-.3-1.1-.7-1.4-.3-.2-.6-.3-1-.3s-.4,0-.6,0h-.2c0,0-66.4,23.3-66.4,23.3h-.8c-3.4-.2-6.7-.8-9.6-1.7-2.9-.9-5.5-2.2-7.5-4.1-1.3-1.3-2.5-3-2.9-5.1-.4-2.2,1.1-4.3,3.4-4.7,2.2-.4,4.3,1.1,4.7,3.4h0s0,0,0,0c0,0,.2.3.4.5.4.4,1.3,1,2.4,1.5,2.1,1,5.3,1.7,8.8,1.9l65.3-22.8h-.2c1.1-.3-1.2-10.3-17.7-8.5ZM173.7,71.4l-59.5,20.8c-1.1.4-2.2-.2-2.6-1.3-.4-1.1.2-2.2,1.3-2.6l59.5-20.8c1.1-.4,2.2.2,2.6,1.2.4,1.1-.2,2.2-1.3,2.6Z"/>
  <path class="st1" d="M191.8,74.7c-1.7-1.2-3.7-1.8-5.7-1.8s-2.2.2-3.3.6h.2c0,0-65.3,22.8-65.3,22.8-3.4-.2-6.6-1-8.8-1.9-1.2-.5-2-1.1-2.4-1.5-.2-.2-.3-.4-.4-.5h0c0,0,0,0,0,0-.4-2.2-2.5-3.7-4.7-3.4-2.2.4-3.7,2.5-3.4,4.7.4,2.1,1.5,3.8,2.9,5.1,2.1,1.9,4.6,3.2,7.5,4.1,2.9.9,6.2,1.5,9.6,1.7h.8s66.4-23.2,66.4-23.2h.2c.2-.1.4-.2.6-.2.4,0,.7.1,1,.3.4.3.7.8.7,1.4v98.5c0,3.2-2,6-5,7.1l-66,23.1h-.1c-.4.2-1,.4-1.8.4-1.4,0-3.5-.5-5.7-1.4-3.2-1.4-6.7-3.7-9.2-6-1.2-1.1-2.2-2.2-2.8-3-.2-.3-.4-.6-.5-.8,0-.2,0-.4,0-.7,0-3.7,0-15.1,0-29.3,0-32.4,0-79,0-79v-1.5c0-.7.5-1.4,1.1-1.6l67.2-23.7c2.1-.8,3.3-3.1,2.5-5.2-.7-2.1-3.1-3.2-5.2-2.5l-67.1,23.7h0c-4,1.4-6.6,5.1-6.6,9.3v1.5h0s0,2.9,0,7.8c0,14.6,0,46.9,0,71.2s0,15.3,0,20.7c0,2.7,0,4.9,0,6.5,0,.8,0,1.5,0,2,0,.5,0,.9,0,.9h0s0,.3,0,.3c0,1.6.5,2.7,1.1,3.8,1,1.8,2.4,3.4,4.1,5,2.6,2.4,5.9,4.9,9.5,6.8,3.6,1.9,7.5,3.3,11.5,3.4,1.6,0,3.2-.3,4.7-.9h0s65.8-23,65.8-23c6.3-2.2,10.5-8.1,10.5-14.8v-98.5c0-3.2-1.6-6.2-4.2-8.1Z"/>
  <path class="st1" d="M172.4,67.3l-59.5,20.8c-1.1.4-1.6,1.5-1.3,2.6.4,1.1,1.5,1.6,2.6,1.3l59.5-20.8c1.1-.4,1.6-1.5,1.3-2.6-.4-1.1-1.5-1.6-2.6-1.2Z"/>
  <path class="st2" d="M200,93.7l-67.2,23.7c-.7.2-1.1.9-1.1,1.6v1.5s0,46.6,0,79,0,25.6,0,29.3c0,.3,0,.5,0,.7,0,.2.2.4.5.8.6.8,1.6,1.9,2.8,3,2.5,2.2,5.9,4.6,9.2,6,2.2.9,4.2,1.4,5.7,1.4.8,0,1.3-.1,1.8-.3h.1c0,0,66-23.1,66-23.1,3-1.1,5-3.9,5-7.1v-98.5c0-.5-.3-1.1-.7-1.4-.3-.2-.6-.3-1-.3s-.4,0-.6,0h-.2c0,0-66.4,23.3-66.4,23.3h-.8c-3.4-.2-6.7-.8-9.6-1.7-2.9-.9-5.5-2.2-7.5-4.1-1.3-1.3-2.5-3-2.9-5.1-.4-2.2,1.1-4.3,3.4-4.7,2.2-.4,4.3,1.1,4.7,3.4h0s0,0,0,0c0,0,.2.3.4.5.4.4,1.3,1,2.4,1.5,2.1,1,5.3,1.7,8.8,1.9l65.3-22.8h-.2c1.1-.3-1.2-10.3-17.7-8.5ZM208.6,100l-59.5,20.8c-1.1.4-2.2-.2-2.6-1.3-.4-1.1.2-2.2,1.3-2.6l59.5-20.8c1.1-.4,2.2.2,2.6,1.2.4,1.1-.2,2.2-1.3,2.6Z"/>
  <path class="st1" d="M226.7,103.3c-1.7-1.2-3.7-1.8-5.7-1.8s-2.2.2-3.3.6h.2c0,0-65.3,22.8-65.3,22.8-3.4-.2-6.6-1-8.8-1.9-1.2-.5-2-1.1-2.4-1.5-.2-.2-.3-.4-.4-.5h0c0,0,0,0,0,0-.4-2.2-2.5-3.7-4.7-3.4-2.2.4-3.7,2.5-3.4,4.7.4,2.1,1.5,3.8,2.9,5.1,2.1,1.9,4.6,3.2,7.5,4.1,2.9.9,6.2,1.5,9.6,1.7h.8s66.4-23.2,66.4-23.2h.2c.2-.1.4-.2.6-.2.4,0,.7.1,1,.3.4.3.7.8.7,1.4v98.5c0,3.2-2,6-5,7.1l-66,23.1h-.1c-.4.2-1,.4-1.8.4-1.4,0-3.5-.5-5.7-1.4-3.2-1.4-6.7-3.7-9.2-6-1.2-1.1-2.2-2.2-2.8-3-.2-.3-.4-.6-.5-.8,0-.2,0-.4,0-.7,0-3.7,0-15.1,0-29.3,0-32.4,0-79,0-79v-1.5c0-.7.5-1.4,1.1-1.6l67.2-23.7c2.1-.8,3.3-3.1,2.5-5.2-.7-2.1-3.1-3.2-5.2-2.5l-67.1,23.7h0c-4,1.4-6.6,5.1-6.6,9.3v1.5h0s0,2.9,0,7.8c0,14.6,0,46.9,0,71.2s0,15.3,0,20.7c0,2.7,0,4.9,0,6.5,0,.8,0,1.5,0,2,0,.5,0,.9,0,.9h0s0,.3,0,.3c0,1.6.5,2.7,1.1,3.8,1,1.8,2.4,3.4,4.1,5,2.6,2.4,5.9,4.9,9.5,6.8,3.6,1.9,7.5,3.3,11.5,3.4,1.6,0,3.2-.3,4.7-.9h0s65.8-23,65.8-23c6.3-2.2,10.5-8.1,10.5-14.8v-98.5c0-3.2-1.6-6.2-4.2-8.1Z"/>
  <path class="st1" d="M207.3,96l-59.5,20.8c-1.1.4-1.6,1.5-1.3,2.6.4,1.1,1.5,1.6,2.6,1.3l59.5-20.8c1.1-.4,1.6-1.5,1.3-2.6-.4-1.1-1.5-1.6-2.6-1.2Z"/>
  <path class="st1" d="M41.2,117.9c-3.7,0-5.8-1.5-5.8-4.4v-37.9c0-2.9,2.1-4.6,5.8-4.6s5.9,1.6,5.9,4.6v37.9c0,2.9-2.2,4.4-5.8,4.4Z"/>
  <path class="st1" d="M73.8,145c-3.7,0-5.8-1.5-5.8-4.4v-37.9c0-2.9,2.1-4.6,5.8-4.6s5.9,1.6,5.9,4.6v37.9c0,2.9-2.2,4.4-5.8,4.4Z"/>
  <path class="st1" d="M109.4,177.5c-3.7,0-5.8-1.5-5.8-4.4v-37.9c0-2.9,2.1-4.6,5.8-4.6s5.9,1.6,5.9,4.6v37.9c0,2.9-2.2,4.4-5.8,4.4Z"/>
  <path class="st1" d="M166.5,166h-14.3c-.9,0-1.5.5-1.5,1.3v9.4h11.3c1.9,0,3,1.6,3,4s-1.1,4.1-3,4.1h-11.2v15.2c0,2.9-2.2,4.5-5.9,4.5s-5.8-1.5-5.8-4.4v-34c0-6,2.2-8.1,8.3-8.1h19.1c1.9,0,3,1.6,3,4s-1.1,4.1-3,4.1Z"/>
</svg>