<?xml version="1.0" encoding="UTF-8"?>
<svg id="_レイヤー_1" data-name="レイヤー_1" xmlns="http://www.w3.org/2000/svg" version="1.1" viewBox="0 0 250 250">
  <!-- Generator: Adobe Illustrator 30.2.1, SVG Export Plug-In . SVG Version: 2.1.1 Build 1)  -->
  <defs>
    <style>
      .st0 {
        fill: #19499d;
      }

      .st1 {
        fill: #fff;
      }

      .st2 {
        fill: #e7201a;
      }
    </style>
  </defs>
  <g>
    <path class="st0" d="M100.3,9.6L12.2,33.3c-.9.2-1.5.9-1.5,1.6v1.5s.1,46.6.1,79,0,25.6,0,29.3c0,.3,0,.5,0,.7.1.2.3.4.6.8.8.8,2,1.9,3.7,3,3.2,2.2,7.8,4.6,12,6,2.8.9,5.5,1.4,7.4,1.4,1,0,1.8-.1,2.3-.3h.2c0,0,86.5-23.1,86.5-23.1,4-1.1,6.6-3.9,6.6-7.1V27.5c0-.5-.4-1.1-.9-1.4-.4-.2-.8-.3-1.3-.3s-.5,0-.7,0h-.3c0,0-87.2,23.3-87.2,23.3h-1c-4.5-.2-8.8-.8-12.6-1.7-3.8-.9-7.2-2.2-9.9-4.1-1.8-1.3-3.3-3-3.8-5.1-.5-2.2,1.5-4.3,4.4-4.7,2.9-.4,5.7,1.1,6.2,3.4h0s0,0,0,0c0,0,.2.3.5.5.6.4,1.7,1,3.2,1.5,2.8,1,7,1.7,11.5,1.9l85.6-22.8h-.3c1.4-.3-1.6-10.3-23.2-8.5ZM111.7,16l-78.1,20.8c-1.4.4-2.9-.2-3.4-1.3-.5-1.1.2-2.2,1.6-2.6L109.9,12.1c1.4-.4,2.9.2,3.4,1.2.5,1.1-.2,2.2-1.6,2.6Z"/>
    <g>
      <path class="st1" d="M135.3,19.2c-2.2-1.2-4.8-1.8-7.5-1.8s-2.9.2-4.3.6h.3c0,0-85.6,22.8-85.6,22.8-4.5-.2-8.7-1-11.5-1.9-1.5-.5-2.6-1.1-3.2-1.5-.3-.2-.5-.4-.5-.5h0c0,0,0,0,0,0-.5-2.2-3.2-3.7-6.2-3.4-2.9.4-4.9,2.5-4.4,4.7.5,2.1,2,3.8,3.8,5.1,2.7,1.9,6.1,3.2,9.9,4.1,3.8.9,8.1,1.5,12.6,1.7h1s87.2-23.2,87.2-23.2h.3c.2-.1.5-.2.7-.2.5,0,.9.1,1.3.3.6.3.9.8.9,1.4v98.5c0,3.2-2.6,6-6.6,7.1l-86.5,23.1h-.2c-.5.2-1.3.4-2.3.4-1.9,0-4.6-.5-7.4-1.4-4.3-1.4-8.8-3.7-12-6-1.6-1.1-2.9-2.2-3.7-3-.3-.3-.5-.6-.6-.8,0-.2,0-.4,0-.7,0-3.7,0-15.1,0-29.3,0-32.4-.1-79-.1-79v-1.5c0-.7.6-1.4,1.5-1.6L100.3,9.4c2.8-.8,4.3-3.1,3.3-5.2-1-2.1-4-3.2-6.8-2.5L8.7,25.4h0C3.5,26.7,0,30.5,0,34.7v1.5H0s0,2.9,0,7.8c0,14.6,0,46.9,0,71.2s0,15.3,0,20.7c0,2.7,0,4.9,0,6.5,0,.8,0,1.5,0,2,0,.5,0,.9,0,.9H0s0,.3,0,.3c0,1.6.7,2.7,1.4,3.8,1.3,1.8,3.2,3.4,5.4,5,3.4,2.4,7.7,4.9,12.5,6.8,4.7,1.9,9.8,3.3,15.1,3.4,2,0,4.1-.3,6.2-.9h0s86.4-23,86.4-23c8.3-2.2,13.8-8.1,13.8-14.8V27.3c0-3.2-2-6.2-5.5-8.1Z"/>
      <path class="st1" d="M109.9,11.9L31.8,32.7c-1.4.4-2.1,1.5-1.6,2.6.5,1.1,2,1.6,3.4,1.3L111.7,15.7c1.4-.4,2.1-1.5,1.6-2.6-.5-1.1-2-1.6-3.4-1.2Z"/>
    </g>
  </g>
  <g>
    <g>
      <path class="st2" d="M136.7,38.2l-88.1,23.7c-.9.2-1.5.9-1.5,1.6v1.5s.1,46.6.1,79,0,25.6,0,29.3c0,.3,0,.5,0,.7.1.2.3.4.6.8.8.8,2,1.9,3.7,3,3.2,2.2,7.8,4.6,12,6,2.8.9,5.5,1.4,7.4,1.4,1,0,1.8-.1,2.3-.3h.2c0,0,86.5-23.1,86.5-23.1,4-1.1,6.6-3.9,6.6-7.1V56.1c0-.5-.4-1.1-.9-1.4-.4-.2-.8-.3-1.3-.3s-.5,0-.7,0h-.3c0,0-87.2,23.3-87.2,23.3h-1c-4.5-.2-8.8-.8-12.6-1.7-3.8-.9-7.2-2.2-9.9-4.1-1.8-1.3-3.3-3-3.8-5.1-.5-2.2,1.5-4.3,4.4-4.7,2.9-.4,5.7,1.1,6.2,3.4h0s0,0,0,0c0,0,.2.3.5.5.6.4,1.7,1,3.2,1.5,2.8,1,7,1.7,11.5,1.9l85.6-22.8h-.3c1.4-.3-1.6-10.3-23.2-8.5ZM148.1,44.6l-78.1,20.8c-1.4.4-2.9-.2-3.4-1.3-.5-1.1.2-2.2,1.6-2.6l78.1-20.8c1.4-.4,2.9.2,3.4,1.2.5,1.1-.2,2.2-1.6,2.6Z"/>
      <path class="st1" d="M171.7,47.9c-2.2-1.2-4.8-1.8-7.5-1.8s-2.9.2-4.3.6h.3c0,0-85.6,22.8-85.6,22.8-4.5-.2-8.7-1-11.5-1.9-1.5-.5-2.6-1.1-3.2-1.5-.3-.2-.5-.4-.5-.5h0c0,0,0,0,0,0-.5-2.2-3.2-3.7-6.2-3.4-2.9.4-4.9,2.5-4.4,4.7.5,2.1,2,3.8,3.8,5.1,2.7,1.9,6.1,3.2,9.9,4.1,3.8.9,8.1,1.5,12.6,1.7h1s87.2-23.2,87.2-23.2h.3c.2-.1.5-.2.7-.2.5,0,.9.1,1.3.3.6.3.9.8.9,1.4v98.5c0,3.2-2.6,6-6.6,7.1l-86.5,23.1h-.2c-.5.2-1.3.4-2.3.4-1.9,0-4.6-.5-7.4-1.4-4.3-1.4-8.8-3.7-12-6-1.6-1.1-2.9-2.2-3.7-3-.3-.3-.5-.6-.6-.8,0-.2,0-.4,0-.7,0-3.7,0-15.1,0-29.3,0-32.4-.1-79-.1-79v-1.5c0-.7.6-1.4,1.5-1.6l88.1-23.7c2.8-.8,4.3-3.1,3.3-5.2-1-2.1-4-3.2-6.8-2.5l-88.1,23.7h0c-5.2,1.4-8.7,5.1-8.7,9.3v1.5h0s0,2.9,0,7.8c0,14.6,0,46.9,0,71.2s0,15.3,0,20.7c0,2.7,0,4.9,0,6.5,0,.8,0,1.5,0,2,0,.5,0,.9,0,.9h0s0,.3,0,.3c0,1.6.7,2.7,1.4,3.8,1.3,1.8,3.2,3.4,5.4,5,3.4,2.4,7.7,4.9,12.5,6.8,4.7,1.9,9.8,3.3,15.1,3.4,2,0,4.1-.3,6.2-.9h0s86.4-23,86.4-23c8.3-2.2,13.8-8.1,13.8-14.8V55.9c0-3.2-2-6.2-5.5-8.1Z"/>
    </g>
    <path class="st1" d="M146.3,40.5l-78.1,20.8c-1.4.4-2.1,1.5-1.6,2.6.5,1.1,2,1.6,3.4,1.3l78.1-20.8c1.4-.4,2.1-1.5,1.6-2.6-.5-1.1-2-1.6-3.4-1.2Z"/>
  </g>
  <g>
    <g>
      <path class="st0" d="M173.1,65l-88.1,23.7c-.9.2-1.5.9-1.5,1.6v1.5s.1,46.6.1,79,0,25.6,0,29.3c0,.3,0,.5,0,.7.1.2.3.4.6.8.8.8,2,1.9,3.7,3,3.2,2.2,7.8,4.6,12,6,2.8.9,5.5,1.4,7.4,1.4,1,0,1.8-.1,2.3-.3h.2c0,0,86.5-23.1,86.5-23.1,4-1.1,6.6-3.9,6.6-7.1v-98.5c0-.5-.4-1.1-.9-1.4-.4-.2-.8-.3-1.3-.3s-.5,0-.7,0h-.3c0,0-87.2,23.3-87.2,23.3h-1c-4.5-.2-8.8-.8-12.6-1.7-3.8-.9-7.2-2.2-9.9-4.1-1.8-1.3-3.3-3-3.8-5.1-.5-2.2,1.5-4.3,4.4-4.7,2.9-.4,5.7,1.1,6.2,3.4h0s0,0,0,0c0,0,.2.3.5.5.6.4,1.7,1,3.2,1.5,2.8,1,7,1.7,11.5,1.9l85.6-22.8h-.3c1.4-.3-1.6-10.3-23.2-8.5ZM184.5,71.4l-78.1,20.8c-1.4.4-2.9-.2-3.4-1.3-.5-1.1.2-2.2,1.6-2.6l78.1-20.8c1.4-.4,2.9.2,3.4,1.2.5,1.1-.2,2.2-1.6,2.6Z"/>
      <path class="st1" d="M208.1,74.7c-2.2-1.2-4.8-1.8-7.5-1.8s-2.9.2-4.3.6h.3c0,0-85.6,22.8-85.6,22.8-4.5-.2-8.7-1-11.5-1.9-1.5-.5-2.6-1.1-3.2-1.5-.3-.2-.5-.4-.5-.5h0c0,0,0,0,0,0-.5-2.2-3.2-3.7-6.2-3.4-2.9.4-4.9,2.5-4.4,4.7.5,2.1,2,3.8,3.8,5.1,2.7,1.9,6.1,3.2,9.9,4.1,3.8.9,8.1,1.5,12.6,1.7h1s87.2-23.2,87.2-23.2h.3c.2-.1.5-.2.7-.2.5,0,.9.1,1.3.3.6.3.9.8.9,1.4v98.5c0,3.2-2.6,6-6.6,7.1l-86.5,23.1h-.2c-.5.2-1.3.4-2.3.4-1.9,0-4.6-.5-7.4-1.4-4.3-1.4-8.8-3.7-12-6-1.6-1.1-2.9-2.2-3.7-3-.3-.3-.5-.6-.6-.8,0-.2,0-.4,0-.7,0-3.7,0-15.1,0-29.3,0-32.4-.1-79-.1-79v-1.5c0-.7.6-1.4,1.5-1.6l88.1-23.7c2.8-.8,4.3-3.1,3.3-5.2-1-2.1-4-3.2-6.8-2.5l-88.1,23.7h0c-5.2,1.4-8.7,5.1-8.7,9.3v1.5h0s0,2.9,0,7.8c0,14.6,0,46.9,0,71.2s0,15.3,0,20.7c0,2.7,0,4.9,0,6.5,0,.8,0,1.5,0,2,0,.5,0,.9,0,.9h0s0,.3,0,.3c0,1.6.7,2.7,1.4,3.8,1.3,1.8,3.2,3.4,5.4,5,3.4,2.4,7.7,4.9,12.5,6.8,4.7,1.9,9.8,3.3,15.1,3.4,2,0,4.1-.3,6.2-.9h0s86.4-23,86.4-23c8.3-2.2,13.8-8.1,13.8-14.8v-98.5c0-3.2-2-6.2-5.5-8.1Z"/>
    </g>
    <path class="st1" d="M182.7,67.3l-78.1,20.8c-1.4.4-2.1,1.5-1.6,2.6.5,1.1,2,1.6,3.4,1.3l78.1-20.8c1.4-.4,2.1-1.5,1.6-2.6-.5-1.1-2-1.6-3.4-1.2Z"/>
  </g>
  <g>
    <g>
      <path class="st2" d="M209.5,93.7l-88.1,23.7c-.9.2-1.5.9-1.5,1.6v1.5s.1,46.6.1,79,0,25.6,0,29.3c0,.3,0,.5,0,.7.1.2.3.4.6.8.8.8,2,1.9,3.7,3,3.2,2.2,7.8,4.6,12,6,2.8.9,5.5,1.4,7.4,1.4,1,0,1.8-.1,2.3-.3h.2c0,0,86.5-23.1,86.5-23.1,4-1.1,6.6-3.9,6.6-7.1v-98.5c0-.5-.4-1.1-.9-1.4-.4-.2-.8-.3-1.3-.3s-.5,0-.7,0h-.3c0,0-87.2,23.3-87.2,23.3h-1c-4.5-.2-8.8-.8-12.6-1.7-3.8-.9-7.2-2.2-9.9-4.1-1.8-1.3-3.3-3-3.8-5.1-.5-2.2,1.5-4.3,4.4-4.7,2.9-.4,5.7,1.1,6.2,3.4h0s0,0,0,0c0,0,.2.3.5.5.6.4,1.7,1,3.2,1.5,2.8,1,7,1.7,11.5,1.9l85.6-22.8h-.3c1.4-.3-1.6-10.3-23.2-8.5ZM220.9,100l-78.1,20.8c-1.4.4-2.9-.2-3.4-1.3-.5-1.1.2-2.2,1.6-2.6l78.1-20.8c1.4-.4,2.9.2,3.4,1.2.5,1.1-.2,2.2-1.6,2.6Z"/>
      <path class="st1" d="M244.5,103.3c-2.2-1.2-4.8-1.8-7.5-1.8s-2.9.2-4.3.6h.3c0,0-85.6,22.8-85.6,22.8-4.5-.2-8.7-1-11.5-1.9-1.5-.5-2.6-1.1-3.2-1.5-.3-.2-.5-.4-.5-.5h0c0,0,0,0,0,0-.5-2.2-3.2-3.7-6.2-3.4-2.9.4-4.9,2.5-4.4,4.7.5,2.1,2,3.8,3.8,5.1,2.7,1.9,6.1,3.2,9.9,4.1,3.8.9,8.1,1.5,12.6,1.7h1s87.2-23.2,87.2-23.2h.3c.2-.1.5-.2.7-.2.5,0,.9.1,1.3.3.6.3.9.8.9,1.4v98.5c0,3.2-2.6,6-6.6,7.1l-86.5,23.1h-.2c-.5.2-1.3.4-2.3.4-1.9,0-4.6-.5-7.4-1.4-4.3-1.4-8.8-3.7-12-6-1.6-1.1-2.9-2.2-3.7-3-.3-.3-.5-.6-.6-.8,0-.2,0-.4,0-.7,0-3.7,0-15.1,0-29.3,0-32.4-.1-79-.1-79v-1.5c0-.7.6-1.4,1.5-1.6l88.1-23.7c2.8-.8,4.3-3.1,3.3-5.2-1-2.1-4-3.2-6.8-2.5l-88.1,23.7h0c-5.2,1.4-8.7,5.1-8.7,9.3v1.5h0s0,2.9,0,7.8c0,14.6,0,46.9,0,71.2s0,15.3,0,20.7c0,2.7,0,4.9,0,6.5,0,.8,0,1.5,0,2,0,.5,0,.9,0,.9h0s0,.3,0,.3c0,1.6.7,2.7,1.4,3.8,1.3,1.8,3.2,3.4,5.4,5,3.4,2.4,7.7,4.9,12.5,6.8,4.7,1.9,9.8,3.3,15.1,3.4,2,0,4.1-.3,6.2-.9h0s86.4-23,86.4-23c8.3-2.2,13.8-8.1,13.8-14.8v-98.5c0-3.2-2-6.2-5.5-8.1Z"/>
    </g>
    <path class="st1" d="M219.1,96l-78.1,20.8c-1.4.4-2.1,1.5-1.6,2.6.5,1.1,2,1.6,3.4,1.3l78.1-20.8c1.4-.4,2.1-1.5,1.6-2.6-.5-1.1-2-1.6-3.4-1.2Z"/>
  </g>
  <path class="st1" d="M23.3,119.7c-4.9,0-7.7-1.8-7.7-5.3v-45.4c0-3.5,2.8-5.5,7.6-5.5s7.7,2,7.7,5.5v45.4c0,3.5-2.9,5.3-7.7,5.3Z"/>
  <path class="st1" d="M59.9,146.6c-4.9,0-7.7-1.8-7.7-5.3v-45.4c0-3.5,2.8-5.5,7.6-5.5s7.7,2,7.7,5.5v45.4c0,3.5-2.9,5.3-7.7,5.3Z"/>
  <path class="st1" d="M96.5,174.1c-4.9,0-7.7-1.8-7.7-5.3v-45.4c0-3.5,2.8-5.5,7.6-5.5s7.7,2,7.7,5.5v45.4c0,3.5-2.9,5.3-7.7,5.3Z"/>
  <path class="st1" d="M161.5,157.5h-18.8c-1.2,0-1.9.6-1.9,1.6v11.3h14.8c2.5,0,3.9,1.9,3.9,4.7s-1.4,4.9-3.9,4.9h-14.8v18.2c0,3.5-2.9,5.4-7.7,5.4s-7.7-1.8-7.7-5.3v-40.7c0-7.1,2.9-9.7,10.9-9.7h25c2.6,0,4,1.9,4,4.7s-1.4,4.9-3.9,4.9Z"/>
</svg>